solid AutoSave_AutoSave_All parts 1
facet normal 0.9659258262897537 -0.25881904509996284 0.0
  outer loop
    vertex 14934.029470172267 12961.059496415299 1.199999999999997
    vertex 14933.949318699777 12960.760367047662 3.199999999999997
    vertex 14933.949318699777 12960.760367047662 1.199999999999997
  endloop
endfacet
facet normal 0.9659258262897537 -0.25881904509996284 0.0
  outer loop
    vertex 14933.949318699777 12960.760367047662 3.199999999999997
    vertex 14934.029470172267 12961.059496415299 1.199999999999997
    vertex 14934.029470172267 12961.059496415299 3.199999999999997
  endloop
endfacet
facet normal -0.7091558950188946 -0.7050517119757603 -0.0
  outer loop
    vertex 14926.312240439407 12960.76187315748 3.199999999999997
    vertex 14926.530580998164 12960.542261614475 1.199999999999997
    vertex 14926.530580998164 12960.542261614475 3.199999999999997
  endloop
endfacet
facet normal -0.7091558950188946 -0.7050517119757603 -0.0
  outer loop
    vertex 14926.530580998164 12960.542261614475 1.199999999999997
    vertex 14926.312240439407 12960.76187315748 3.199999999999997
    vertex 14926.312240439407 12960.76187315748 1.199999999999997
  endloop
endfacet
facet normal 0.7071067811865476 0.7071067811865476 0.0
  outer loop
    vertex 14933.731211436992 12968.179111657568 1.199999999999997
    vertex 14933.950826679264 12967.959496415297 3.199999999999997
    vertex 14933.950826679264 12967.959496415297 1.199999999999997
  endloop
endfacet
facet normal 0.7071067811865476 0.7071067811865476 0.0
  outer loop
    vertex 14933.950826679264 12967.959496415297 3.199999999999997
    vertex 14933.731211436992 12968.179111657568 1.199999999999997
    vertex 14933.731211436992 12968.179111657568 3.199999999999997
  endloop
endfacet
facet normal 0.25881904510247317 0.9659258262890811 0.0
  outer loop
    vertex 14933.431211436991 12968.259496415298 3.199999999999997
    vertex 14933.731211436992 12968.179111657568 1.199999999999997
    vertex 14933.431211436991 12968.259496415298 1.199999999999997
  endloop
endfacet
facet normal 0.25881904510247317 0.9659258262890811 0.0
  outer loop
    vertex 14933.731211436992 12968.179111657568 1.199999999999997
    vertex 14933.431211436991 12968.259496415298 3.199999999999997
    vertex 14933.731211436992 12968.179111657568 3.199999999999997
  endloop
endfacet
facet normal -0.9999999649772691 -0.00026466102980207137 -0.0
  outer loop
    vertex 14926.23121143699 12967.659496415297 3.199999999999997
    vertex 14926.232957740345 12961.061232612064 1.199999999999997
    vertex 14926.232957740345 12961.061232612064 3.199999999999997
  endloop
endfacet
facet normal -0.9999999649772691 -0.00026466102980207137 -0.0
  outer loop
    vertex 14926.232957740345 12961.061232612064 1.199999999999997
    vertex 14926.23121143699 12967.659496415297 3.199999999999997
    vertex 14926.23121143699 12967.659496415297 1.199999999999997
  endloop
endfacet
facet normal -7.632275517802724e-07 -0.9999999999997089 -0.0
  outer loop
    vertex 14933.431211436991 12960.461237680023 3.199999999999997
    vertex 14926.829475240229 12960.461242718651 1.199999999999997
    vertex 14933.431211436991 12960.461237680023 1.199999999999997
  endloop
endfacet
facet normal -7.632275517802724e-07 -0.9999999999997089 -0.0
  outer loop
    vertex 14926.829475240229 12960.461242718651 1.199999999999997
    vertex 14933.431211436991 12960.461237680023 3.199999999999997
    vertex 14926.829475240229 12960.461242718651 3.199999999999997
  endloop
endfacet
facet normal 0.25881904510431286 -0.9659258262885883 0.0
  outer loop
    vertex 14933.73034080463 12960.541389152515 3.199999999999997
    vertex 14933.431211436991 12960.461237680023 1.199999999999997
    vertex 14933.73034080463 12960.541389152515 1.199999999999997
  endloop
endfacet
facet normal 0.25881904510431286 -0.9659258262885883 0.0
  outer loop
    vertex 14933.431211436991 12960.461237680023 1.199999999999997
    vertex 14933.73034080463 12960.541389152515 3.199999999999997
    vertex 14933.431211436991 12960.461237680023 3.199999999999997
  endloop
endfacet
facet normal 0.7071067811842164 -0.7071067811888787 0.0
  outer loop
    vertex 14933.949318699777 12960.760367047662 3.199999999999997
    vertex 14933.73034080463 12960.541389152515 1.199999999999997
    vertex 14933.949318699777 12960.760367047662 1.199999999999997
  endloop
endfacet
facet normal 0.7071067811842164 -0.7071067811888787 0.0
  outer loop
    vertex 14933.73034080463 12960.541389152515 1.199999999999997
    vertex 14933.949318699777 12960.760367047662 3.199999999999997
    vertex 14933.73034080463 12960.541389152515 3.199999999999997
  endloop
endfacet
facet normal 0.0 0.0 1.0
  outer loop
    vertex 14926.829475240229 12960.461242718651 3.199999999999997
    vertex 14926.832947633759 12961.657750111948 3.199999999999997
    vertex 14926.831211436993 12967.059496415295 3.199999999999997
  endloop
endfacet
facet normal 0.0 0.0 1.0
  outer loop
    vertex 14926.832947633759 12961.657750111948 3.199999999999997
    vertex 14926.829475240229 12960.461242718651 3.199999999999997
    vertex 14927.429465133642 12961.057760218535 3.199999999999997
  endloop
endfacet
facet normal 0.0 0.0 1.0
  outer loop
    vertex 14927.429465133642 12961.057760218535 3.199999999999997
    vertex 14926.829475240229 12960.461242718651 3.199999999999997
    vertex 14933.431211436991 12960.461237680023 3.199999999999997
  endloop
endfacet
facet normal 0.0 0.0 1.0
  outer loop
    vertex 14927.429465133642 12961.057760218535 3.199999999999997
    vertex 14933.431211436991 12960.461237680023 3.199999999999997
    vertex 14932.832952701716 12961.059496415299 3.199999999999997
  endloop
endfacet
facet normal 0.0 0.0 1.0
  outer loop
    vertex 14932.832952701716 12961.059496415299 3.199999999999997
    vertex 14933.431211436991 12960.461237680023 3.199999999999997
    vertex 14933.431211436991 12961.657755150574 3.199999999999997
  endloop
endfacet
facet normal 0.0 0.0 1.0
  outer loop
    vertex 14933.431211436991 12961.657755150574 3.199999999999997
    vertex 14933.431211436991 12960.461237680023 3.199999999999997
    vertex 14933.73034080463 12960.541389152515 3.199999999999997
  endloop
endfacet
facet normal 0.0 0.0 1.0
  outer loop
    vertex 14933.431211436991 12961.657755150574 3.199999999999997
    vertex 14933.73034080463 12960.541389152515 3.199999999999997
    vertex 14933.431211436991 12967.059496415297 3.199999999999997
  endloop
endfacet
facet normal 0.0 0.0 1.0
  outer loop
    vertex 14933.431211436991 12967.059496415297 3.199999999999997
    vertex 14933.73034080463 12960.541389152515 3.199999999999997
    vertex 14933.431211436991 12968.259496415298 3.199999999999997
  endloop
endfacet
facet normal 0.0 0.0 1.0
  outer loop
    vertex 14933.431211436991 12968.259496415298 3.199999999999997
    vertex 14933.73034080463 12960.541389152515 3.199999999999997
    vertex 14933.731211436992 12968.179111657568 3.199999999999997
  endloop
endfacet
facet normal 0.0 0.0 1.0
  outer loop
    vertex 14933.731211436992 12968.179111657568 3.199999999999997
    vertex 14933.73034080463 12960.541389152515 3.199999999999997
    vertex 14933.949318699777 12960.760367047662 3.199999999999997
  endloop
endfacet
facet normal 0.0 0.0 1.0
  outer loop
    vertex 14933.731211436992 12968.179111657568 3.199999999999997
    vertex 14933.949318699777 12960.760367047662 3.199999999999997
    vertex 14933.950826679264 12967.959496415297 3.199999999999997
  endloop
endfacet
facet normal 0.0 0.0 1.0
  outer loop
    vertex 14933.950826679264 12967.959496415297 3.199999999999997
    vertex 14933.949318699777 12960.760367047662 3.199999999999997
    vertex 14934.029470172267 12961.059496415299 3.199999999999997
  endloop
endfacet
facet normal 0.0 0.0 1.0
  outer loop
    vertex 14933.950826679264 12967.959496415297 3.199999999999997
    vertex 14934.029470172267 12961.059496415299 3.199999999999997
    vertex 14934.031211436992 12967.659496415297 3.199999999999997
  endloop
endfacet
facet normal 0.0 0.0 1.0
  outer loop
    vertex 14926.232957740345 12961.061232612064 3.199999999999997
    vertex 14926.31159619472 12967.959496415298 3.199999999999997
    vertex 14926.23121143699 12967.659496415297 3.199999999999997
  endloop
endfacet
facet normal 0.0 0.0 1.0
  outer loop
    vertex 14926.31159619472 12967.959496415298 3.199999999999997
    vertex 14926.232957740345 12961.061232612064 3.199999999999997
    vertex 14926.312240439407 12960.76187315748 3.199999999999997
  endloop
endfacet
facet normal 0.0 0.0 1.0
  outer loop
    vertex 14926.31159619472 12967.959496415298 3.199999999999997
    vertex 14926.312240439407 12960.76187315748 3.199999999999997
    vertex 14926.531211436992 12968.179111657571 3.199999999999997
  endloop
endfacet
facet normal 0.0 0.0 1.0
  outer loop
    vertex 14926.531211436992 12968.179111657571 3.199999999999997
    vertex 14926.312240439407 12960.76187315748 3.199999999999997
    vertex 14926.530580998164 12960.542261614475 3.199999999999997
  endloop
endfacet
facet normal 0.0 0.0 1.0
  outer loop
    vertex 14926.531211436992 12968.179111657571 3.199999999999997
    vertex 14926.530580998164 12960.542261614475 3.199999999999997
    vertex 14926.829475240229 12960.461242718651 3.199999999999997
  endloop
endfacet
facet normal 0.0 0.0 1.0
  outer loop
    vertex 14926.531211436992 12968.179111657571 3.199999999999997
    vertex 14926.829475240229 12960.461242718651 3.199999999999997
    vertex 14926.831211436993 12968.2594964153 3.199999999999997
  endloop
endfacet
facet normal 0.0 0.0 1.0
  outer loop
    vertex 14926.831211436993 12968.2594964153 3.199999999999997
    vertex 14926.829475240229 12960.461242718651 3.199999999999997
    vertex 14926.831211436993 12967.059496415295 3.199999999999997
  endloop
endfacet
facet normal 0.0 0.0 1.0
  outer loop
    vertex 14926.831211436993 12968.2594964153 3.199999999999997
    vertex 14926.831211436993 12967.059496415295 3.199999999999997
    vertex 14927.431211436997 12967.659496415297 3.199999999999997
  endloop
endfacet
facet normal 0.0 0.0 1.0
  outer loop
    vertex 14926.831211436993 12968.2594964153 3.199999999999997
    vertex 14927.431211436997 12967.659496415297 3.199999999999997
    vertex 14933.431211436991 12968.259496415298 3.199999999999997
  endloop
endfacet
facet normal 0.0 0.0 1.0
  outer loop
    vertex 14933.431211436991 12968.259496415298 3.199999999999997
    vertex 14927.431211436997 12967.659496415297 3.199999999999997
    vertex 14932.831211436993 12967.659496415297 3.199999999999997
  endloop
endfacet
facet normal 0.0 0.0 1.0
  outer loop
    vertex 14933.431211436991 12968.259496415298 3.199999999999997
    vertex 14932.831211436993 12967.659496415297 3.199999999999997
    vertex 14933.431211436991 12967.059496415297 3.199999999999997
  endloop
endfacet
facet normal -0.26162116433334554 -0.9651706410645036 -0.0
  outer loop
    vertex 14926.829475240229 12960.461242718651 3.199999999999997
    vertex 14926.530580998164 12960.542261614475 1.199999999999997
    vertex 14926.829475240229 12960.461242718651 1.199999999999997
  endloop
endfacet
facet normal -0.26162116433334554 -0.9651706410645036 -0.0
  outer loop
    vertex 14926.530580998164 12960.542261614475 1.199999999999997
    vertex 14926.829475240229 12960.461242718651 3.199999999999997
    vertex 14926.530580998164 12960.542261614475 3.199999999999997
  endloop
endfacet
facet normal 0.9659258262890811 0.25881904510247317 0.0
  outer loop
    vertex 14933.950826679264 12967.959496415297 1.199999999999997
    vertex 14934.031211436992 12967.659496415297 3.199999999999997
    vertex 14934.031211436992 12967.659496415297 1.199999999999997
  endloop
endfacet
facet normal 0.9659258262890811 0.25881904510247317 0.0
  outer loop
    vertex 14934.031211436992 12967.659496415297 3.199999999999997
    vertex 14933.950826679264 12967.959496415297 1.199999999999997
    vertex 14933.950826679264 12967.959496415297 3.199999999999997
  endloop
endfacet
facet normal 0.9999999651973981 -0.0002638279793616887 0.0
  outer loop
    vertex 14934.031211436992 12967.659496415297 1.199999999999997
    vertex 14934.029470172267 12961.059496415299 3.199999999999997
    vertex 14934.029470172267 12961.059496415299 1.199999999999997
  endloop
endfacet
facet normal 0.9999999651973981 -0.0002638279793616887 0.0
  outer loop
    vertex 14934.029470172267 12961.059496415299 3.199999999999997
    vertex 14934.031211436992 12967.659496415297 1.199999999999997
    vertex 14934.031211436992 12967.659496415297 3.199999999999997
  endloop
endfacet
facet normal -0.9666728763153404 -0.2560147460523061 -0.0
  outer loop
    vertex 14926.232957740345 12961.061232612064 3.199999999999997
    vertex 14926.312240439407 12960.76187315748 1.199999999999997
    vertex 14926.312240439407 12960.76187315748 3.199999999999997
  endloop
endfacet
facet normal -0.9666728763153404 -0.2560147460523061 -0.0
  outer loop
    vertex 14926.312240439407 12960.76187315748 1.199999999999997
    vertex 14926.232957740345 12961.061232612064 3.199999999999997
    vertex 14926.232957740345 12961.061232612064 1.199999999999997
  endloop
endfacet
facet normal -0.7071067811865476 -0.7071067811865476 -0.0
  outer loop
    vertex 14932.831211436993 12967.659496415297 3.199999999999997
    vertex 14933.431211436991 12967.059496415297 1.199999999999997
    vertex 14933.431211436991 12967.059496415297 3.199999999999997
  endloop
endfacet
facet normal -0.7071067811865476 -0.7071067811865476 -0.0
  outer loop
    vertex 14933.431211436991 12967.059496415297 1.199999999999997
    vertex 14932.831211436993 12967.659496415297 3.199999999999997
    vertex 14932.831211436993 12967.659496415297 1.199999999999997
  endloop
endfacet
facet normal -1.0 -0.0 -0.0
  outer loop
    vertex 14933.431211436991 12967.059496415297 3.199999999999997
    vertex 14933.431211436991 12961.657755150574 1.199999999999997
    vertex 14933.431211436991 12961.657755150574 3.199999999999997
  endloop
endfacet
facet normal -1.0 -0.0 -0.0
  outer loop
    vertex 14933.431211436991 12961.657755150574 1.199999999999997
    vertex 14933.431211436991 12967.059496415297 3.199999999999997
    vertex 14933.431211436991 12967.059496415297 1.199999999999997
  endloop
endfacet
facet normal -0.7071067811865476 0.7071067811865476 0.0
  outer loop
    vertex 14933.431211436991 12961.657755150574 3.199999999999997
    vertex 14932.832952701716 12961.059496415299 1.199999999999997
    vertex 14932.832952701716 12961.059496415299 3.199999999999997
  endloop
endfacet
facet normal -0.7071067811865476 0.7071067811865476 0.0
  outer loop
    vertex 14932.832952701716 12961.059496415299 1.199999999999997
    vertex 14933.431211436991 12961.657755150574 3.199999999999997
    vertex 14933.431211436991 12961.657755150574 1.199999999999997
  endloop
endfacet
facet normal -0.0 -1.0 -0.0
  outer loop
    vertex 14934.531210177167 12959.958624523111 1.199999999999997
    vertex 14925.731210177166 12959.958624523111 -2.8199664825478975e-15
    vertex 14934.531210177167 12959.958624523111 -2.8199664825478975e-15
  endloop
endfacet
facet normal -0.0 -1.0 -0.0
  outer loop
    vertex 14925.731210177166 12959.958624523111 -2.8199664825478975e-15
    vertex 14934.531210177167 12959.958624523111 1.199999999999997
    vertex 14925.731210177166 12959.958624523111 1.199999999999997
  endloop
endfacet
facet normal 0.709155895014428 0.7050517119802531 0.0
  outer loop
    vertex 14926.832947633759 12961.657750111948 1.199999999999997
    vertex 14927.429465133642 12961.057760218535 3.199999999999997
    vertex 14927.429465133642 12961.057760218535 1.199999999999997
  endloop
endfacet
facet normal 0.709155895014428 0.7050517119802531 0.0
  outer loop
    vertex 14927.429465133642 12961.057760218535 3.199999999999997
    vertex 14926.832947633759 12961.657750111948 1.199999999999997
    vertex 14926.832947633759 12961.657750111948 3.199999999999997
  endloop
endfacet
facet normal -0.00032131038578912195 0.9999999483798166 0.0
  outer loop
    vertex 14927.429465133642 12961.057760218535 3.199999999999997
    vertex 14932.832952701716 12961.059496415299 1.199999999999997
    vertex 14927.429465133642 12961.057760218535 1.199999999999997
  endloop
endfacet
facet normal -0.00032131038578912195 0.9999999483798166 0.0
  outer loop
    vertex 14932.832952701716 12961.059496415299 1.199999999999997
    vertex 14927.429465133642 12961.057760218535 3.199999999999997
    vertex 14932.832952701716 12961.059496415299 3.199999999999997
  endloop
endfacet
facet normal 0.7071067811865476 -0.7071067811865476 0.0
  outer loop
    vertex 14927.431211436997 12967.659496415297 1.199999999999997
    vertex 14926.831211436993 12967.059496415295 3.199999999999997
    vertex 14926.831211436993 12967.059496415295 1.199999999999997
  endloop
endfacet
facet normal 0.7071067811865476 -0.7071067811865476 0.0
  outer loop
    vertex 14926.831211436993 12967.059496415295 3.199999999999997
    vertex 14927.431211436997 12967.659496415297 1.199999999999997
    vertex 14927.431211436997 12967.659496415297 3.199999999999997
  endloop
endfacet
facet normal 0.0 -1.0 0.0
  outer loop
    vertex 14932.831211436993 12967.659496415297 3.199999999999997
    vertex 14927.431211436997 12967.659496415297 1.199999999999997
    vertex 14932.831211436993 12967.659496415297 1.199999999999997
  endloop
endfacet
facet normal 0.0 -1.0 0.0
  outer loop
    vertex 14927.431211436997 12967.659496415297 1.199999999999997
    vertex 14932.831211436993 12967.659496415297 3.199999999999997
    vertex 14927.431211436997 12967.659496415297 3.199999999999997
  endloop
endfacet
facet normal 0.9999999483465316 0.00032141396088355864 0.0
  outer loop
    vertex 14926.831211436993 12967.059496415295 1.199999999999997
    vertex 14926.832947633759 12961.657750111948 3.199999999999997
    vertex 14926.832947633759 12961.657750111948 1.199999999999997
  endloop
endfacet
facet normal 0.9999999483465316 0.00032141396088355864 0.0
  outer loop
    vertex 14926.832947633759 12961.657750111948 3.199999999999997
    vertex 14926.831211436993 12967.059496415295 1.199999999999997
    vertex 14926.831211436993 12967.059496415295 3.199999999999997
  endloop
endfacet
facet normal -0.7071067811888719 0.7071067811842232 0.0
  outer loop
    vertex 14926.531211436992 12968.179111657571 3.199999999999997
    vertex 14926.31159619472 12967.959496415298 1.199999999999997
    vertex 14926.31159619472 12967.959496415298 3.199999999999997
  endloop
endfacet
facet normal -0.7071067811888719 0.7071067811842232 0.0
  outer loop
    vertex 14926.31159619472 12967.959496415298 1.199999999999997
    vertex 14926.531211436992 12968.179111657571 3.199999999999997
    vertex 14926.531211436992 12968.179111657571 1.199999999999997
  endloop
endfacet
facet normal -0.9659258262893924 0.258819045101311 0.0
  outer loop
    vertex 14926.31159619472 12967.959496415298 3.199999999999997
    vertex 14926.23121143699 12967.659496415297 1.199999999999997
    vertex 14926.23121143699 12967.659496415297 3.199999999999997
  endloop
endfacet
facet normal -0.9659258262893924 0.258819045101311 0.0
  outer loop
    vertex 14926.23121143699 12967.659496415297 1.199999999999997
    vertex 14926.31159619472 12967.959496415298 3.199999999999997
    vertex 14926.31159619472 12967.959496415298 1.199999999999997
  endloop
endfacet
facet normal -0.2588190451001488 0.9659258262897039 0.0
  outer loop
    vertex 14926.531211436992 12968.179111657571 3.199999999999997
    vertex 14926.831211436993 12968.2594964153 1.199999999999997
    vertex 14926.531211436992 12968.179111657571 1.199999999999997
  endloop
endfacet
facet normal -0.2588190451001488 0.9659258262897039 0.0
  outer loop
    vertex 14926.831211436993 12968.2594964153 1.199999999999997
    vertex 14926.531211436992 12968.179111657571 3.199999999999997
    vertex 14926.831211436993 12968.2594964153 3.199999999999997
  endloop
endfacet
facet normal 4.375220724438945e-13 1.0 0.0
  outer loop
    vertex 14926.831211436993 12968.2594964153 3.199999999999997
    vertex 14933.431211436991 12968.259496415298 1.199999999999997
    vertex 14926.831211436993 12968.2594964153 1.199999999999997
  endloop
endfacet
facet normal 4.375220724438945e-13 1.0 0.0
  outer loop
    vertex 14933.431211436991 12968.259496415298 1.199999999999997
    vertex 14926.831211436993 12968.2594964153 3.199999999999997
    vertex 14933.431211436991 12968.259496415298 3.199999999999997
  endloop
endfacet
facet normal -1.0 0.0 0.0
  outer loop
    vertex 14925.731210177166 12968.758624523112 1.199999999999997
    vertex 14925.731210177166 12959.958624523111 -2.8199664825478975e-15
    vertex 14925.731210177166 12959.958624523111 1.199999999999997
  endloop
endfacet
facet normal -1.0 0.0 0.0
  outer loop
    vertex 14925.731210177166 12959.958624523111 -2.8199664825478975e-15
    vertex 14925.731210177166 12968.758624523112 1.199999999999997
    vertex 14925.731210177166 12968.758624523112 -2.8199664825478975e-15
  endloop
endfacet
facet normal -0.0 1.0 0.0
  outer loop
    vertex 14925.731210177166 12968.758624523112 1.199999999999997
    vertex 14934.531210177167 12968.758624523112 -2.8199664825478975e-15
    vertex 14925.731210177166 12968.758624523112 -2.8199664825478975e-15
  endloop
endfacet
facet normal -0.0 1.0 0.0
  outer loop
    vertex 14934.531210177167 12968.758624523112 -2.8199664825478975e-15
    vertex 14925.731210177166 12968.758624523112 1.199999999999997
    vertex 14934.531210177167 12968.758624523112 1.199999999999997
  endloop
endfacet
facet normal 0.0 0.0 -1.0
  outer loop
    vertex 14934.531210177167 12968.758624523112 -2.8199664825478975e-15
    vertex 14925.731210177166 12959.958624523111 -2.8199664825478975e-15
    vertex 14925.731210177166 12968.758624523112 -2.8199664825478975e-15
  endloop
endfacet
facet normal 0.0 0.0 -1.0
  outer loop
    vertex 14925.731210177166 12959.958624523111 -2.8199664825478975e-15
    vertex 14934.531210177167 12968.758624523112 -2.8199664825478975e-15
    vertex 14934.531210177167 12959.958624523111 -2.8199664825478975e-15
  endloop
endfacet
facet normal -0.0 -0.0 1.0
  outer loop
    vertex 14925.731210177166 12959.958624523111 1.199999999999997
    vertex 14926.232957740345 12961.061232612064 1.199999999999997
    vertex 14925.731210177166 12968.758624523112 1.199999999999997
  endloop
endfacet
facet normal -0.0 -0.0 1.0
  outer loop
    vertex 14926.232957740345 12961.061232612064 1.199999999999997
    vertex 14925.731210177166 12959.958624523111 1.199999999999997
    vertex 14926.312240439407 12960.76187315748 1.199999999999997
  endloop
endfacet
facet normal -0.0 -0.0 1.0
  outer loop
    vertex 14926.312240439407 12960.76187315748 1.199999999999997
    vertex 14925.731210177166 12959.958624523111 1.199999999999997
    vertex 14926.530580998164 12960.542261614475 1.199999999999997
  endloop
endfacet
facet normal -0.0 -0.0 1.0
  outer loop
    vertex 14926.530580998164 12960.542261614475 1.199999999999997
    vertex 14925.731210177166 12959.958624523111 1.199999999999997
    vertex 14926.829475240229 12960.461242718651 1.199999999999997
  endloop
endfacet
facet normal -0.0 -0.0 1.0
  outer loop
    vertex 14926.829475240229 12960.461242718651 1.199999999999997
    vertex 14925.731210177166 12959.958624523111 1.199999999999997
    vertex 14934.531210177167 12959.958624523111 1.199999999999997
  endloop
endfacet
facet normal -0.0 -0.0 1.0
  outer loop
    vertex 14925.731210177166 12968.758624523112 1.199999999999997
    vertex 14926.232957740345 12961.061232612064 1.199999999999997
    vertex 14926.23121143699 12967.659496415297 1.199999999999997
  endloop
endfacet
facet normal -0.0 -0.0 1.0
  outer loop
    vertex 14926.829475240229 12960.461242718651 1.199999999999997
    vertex 14934.531210177167 12959.958624523111 1.199999999999997
    vertex 14933.431211436991 12960.461237680023 1.199999999999997
  endloop
endfacet
facet normal -0.0 -0.0 1.0
  outer loop
    vertex 14933.431211436991 12960.461237680023 1.199999999999997
    vertex 14934.531210177167 12959.958624523111 1.199999999999997
    vertex 14933.73034080463 12960.541389152515 1.199999999999997
  endloop
endfacet
facet normal -0.0 -0.0 1.0
  outer loop
    vertex 14933.73034080463 12960.541389152515 1.199999999999997
    vertex 14934.531210177167 12959.958624523111 1.199999999999997
    vertex 14933.949318699777 12960.760367047662 1.199999999999997
  endloop
endfacet
facet normal -0.0 -0.0 1.0
  outer loop
    vertex 14933.949318699777 12960.760367047662 1.199999999999997
    vertex 14934.531210177167 12959.958624523111 1.199999999999997
    vertex 14934.029470172267 12961.059496415299 1.199999999999997
  endloop
endfacet
facet normal -0.0 -0.0 1.0
  outer loop
    vertex 14934.029470172267 12961.059496415299 1.199999999999997
    vertex 14934.531210177167 12959.958624523111 1.199999999999997
    vertex 14934.031211436992 12967.659496415297 1.199999999999997
  endloop
endfacet
facet normal -0.0 -0.0 1.0
  outer loop
    vertex 14925.731210177166 12968.758624523112 1.199999999999997
    vertex 14926.831211436993 12968.2594964153 1.199999999999997
    vertex 14934.531210177167 12968.758624523112 1.199999999999997
  endloop
endfacet
facet normal -0.0 -0.0 1.0
  outer loop
    vertex 14926.831211436993 12968.2594964153 1.199999999999997
    vertex 14925.731210177166 12968.758624523112 1.199999999999997
    vertex 14926.531211436992 12968.179111657571 1.199999999999997
  endloop
endfacet
facet normal -0.0 -0.0 1.0
  outer loop
    vertex 14926.531211436992 12968.179111657571 1.199999999999997
    vertex 14925.731210177166 12968.758624523112 1.199999999999997
    vertex 14926.31159619472 12967.959496415298 1.199999999999997
  endloop
endfacet
facet normal -0.0 -0.0 1.0
  outer loop
    vertex 14926.31159619472 12967.959496415298 1.199999999999997
    vertex 14925.731210177166 12968.758624523112 1.199999999999997
    vertex 14926.23121143699 12967.659496415297 1.199999999999997
  endloop
endfacet
facet normal -0.0 -0.0 1.0
  outer loop
    vertex 14934.531210177167 12968.758624523112 1.199999999999997
    vertex 14926.831211436993 12968.2594964153 1.199999999999997
    vertex 14933.431211436991 12968.259496415298 1.199999999999997
  endloop
endfacet
facet normal -0.0 -0.0 1.0
  outer loop
    vertex 14934.531210177167 12968.758624523112 1.199999999999997
    vertex 14933.431211436991 12968.259496415298 1.199999999999997
    vertex 14933.731211436992 12968.179111657568 1.199999999999997
  endloop
endfacet
facet normal -0.0 -0.0 1.0
  outer loop
    vertex 14934.531210177167 12968.758624523112 1.199999999999997
    vertex 14933.731211436992 12968.179111657568 1.199999999999997
    vertex 14933.950826679264 12967.959496415297 1.199999999999997
  endloop
endfacet
facet normal -0.0 -0.0 1.0
  outer loop
    vertex 14934.531210177167 12968.758624523112 1.199999999999997
    vertex 14933.950826679264 12967.959496415297 1.199999999999997
    vertex 14934.031211436992 12967.659496415297 1.199999999999997
  endloop
endfacet
facet normal -0.0 -0.0 1.0
  outer loop
    vertex 14934.531210177167 12968.758624523112 1.199999999999997
    vertex 14934.031211436992 12967.659496415297 1.199999999999997
    vertex 14934.531210177167 12959.958624523111 1.199999999999997
  endloop
endfacet
facet normal 1.0 0.0 0.0
  outer loop
    vertex 14934.531210177167 12968.758624523112 -2.8199664825478975e-15
    vertex 14934.531210177167 12959.958624523111 1.199999999999997
    vertex 14934.531210177167 12959.958624523111 -2.8199664825478975e-15
  endloop
endfacet
facet normal 1.0 0.0 0.0
  outer loop
    vertex 14934.531210177167 12959.958624523111 1.199999999999997
    vertex 14934.531210177167 12968.758624523112 -2.8199664825478975e-15
    vertex 14934.531210177167 12968.758624523112 1.199999999999997
  endloop
endfacet
facet normal -0.0 -0.0 1.0
  outer loop
    vertex 14926.832947633759 12961.657750111948 1.199999999999997
    vertex 14927.431211436997 12967.659496415297 1.199999999999997
    vertex 14926.831211436993 12967.059496415295 1.199999999999997
  endloop
endfacet
facet normal -0.0 -0.0 1.0
  outer loop
    vertex 14927.431211436997 12967.659496415297 1.199999999999997
    vertex 14926.832947633759 12961.657750111948 1.199999999999997
    vertex 14927.429465133642 12961.057760218535 1.199999999999997
  endloop
endfacet
facet normal -0.0 -0.0 1.0
  outer loop
    vertex 14927.431211436997 12967.659496415297 1.199999999999997
    vertex 14927.429465133642 12961.057760218535 1.199999999999997
    vertex 14932.832952701716 12961.059496415299 1.199999999999997
  endloop
endfacet
facet normal -0.0 -0.0 1.0
  outer loop
    vertex 14927.431211436997 12967.659496415297 1.199999999999997
    vertex 14932.832952701716 12961.059496415299 1.199999999999997
    vertex 14932.831211436993 12967.659496415297 1.199999999999997
  endloop
endfacet
facet normal -0.0 -0.0 1.0
  outer loop
    vertex 14932.831211436993 12967.659496415297 1.199999999999997
    vertex 14932.832952701716 12961.059496415299 1.199999999999997
    vertex 14933.431211436991 12967.059496415297 1.199999999999997
  endloop
endfacet
facet normal -0.0 -0.0 1.0
  outer loop
    vertex 14933.431211436991 12967.059496415297 1.199999999999997
    vertex 14932.832952701716 12961.059496415299 1.199999999999997
    vertex 14933.431211436991 12961.657755150574 1.199999999999997
  endloop
endfacet
endsolid AutoSave_AutoSave_All parts 1
