solid AutoSave_AutoSave_All parts 1
facet normal -0.0 -0.0 1.0
  outer loop
    vertex 14926.890313489948 12948.620365265819 3.1999999999999997
    vertex 14926.890313489963 12949.468893403257 3.1999999999999997
    vertex 14926.890313489957 12955.571837128395 3.1999999999999997
  endloop
endfacet
facet normal -0.0 -0.0 1.0
  outer loop
    vertex 14926.890313489963 12949.468893403257 3.1999999999999997
    vertex 14926.890313489948 12948.620365265819 3.1999999999999997
    vertex 14927.138841627384 12949.22036526582 3.1999999999999997
  endloop
endfacet
facet normal -0.0 -0.0 1.0
  outer loop
    vertex 14927.138841627384 12949.22036526582 3.1999999999999997
    vertex 14926.890313489948 12948.620365265819 3.1999999999999997
    vertex 14933.490313489956 12948.620365265819 3.1999999999999997
  endloop
endfacet
facet normal -0.0 -0.0 1.0
  outer loop
    vertex 14927.138841627384 12949.22036526582 3.1999999999999997
    vertex 14933.490313489956 12948.620365265819 3.1999999999999997
    vertex 14933.241785352535 12949.22036526582 3.1999999999999997
  endloop
endfacet
facet normal -0.0 -0.0 1.0
  outer loop
    vertex 14933.241785352535 12949.22036526582 3.1999999999999997
    vertex 14933.490313489956 12948.620365265819 3.1999999999999997
    vertex 14933.490313489956 12949.468893403257 3.1999999999999997
  endloop
endfacet
facet normal -0.0 -0.0 1.0
  outer loop
    vertex 14933.490313489956 12949.468893403257 3.1999999999999997
    vertex 14933.490313489956 12948.620365265819 3.1999999999999997
    vertex 14934.090313489958 12949.220365265815 3.1999999999999997
  endloop
endfacet
facet normal -0.0 -0.0 1.0
  outer loop
    vertex 14933.490313489956 12949.468893403257 3.1999999999999997
    vertex 14934.090313489958 12949.220365265815 3.1999999999999997
    vertex 14933.490313489956 12955.571837128395 3.1999999999999997
  endloop
endfacet
facet normal -0.0 -0.0 1.0
  outer loop
    vertex 14933.490313489956 12955.571837128395 3.1999999999999997
    vertex 14934.090313489958 12949.220365265815 3.1999999999999997
    vertex 14933.490313489956 12956.420365265822 3.1999999999999997
  endloop
endfacet
facet normal -0.0 -0.0 1.0
  outer loop
    vertex 14933.490313489956 12956.420365265822 3.1999999999999997
    vertex 14934.090313489958 12949.220365265815 3.1999999999999997
    vertex 14934.090313489949 12955.82036526582 3.1999999999999997
  endloop
endfacet
facet normal -0.0 -0.0 1.0
  outer loop
    vertex 14926.890313489948 12948.620365265819 3.1999999999999997
    vertex 14926.290313489953 12955.82036526582 3.1999999999999997
    vertex 14926.290313489953 12949.22036526582 3.1999999999999997
  endloop
endfacet
facet normal -0.0 -0.0 1.0
  outer loop
    vertex 14926.290313489953 12955.82036526582 3.1999999999999997
    vertex 14926.890313489948 12948.620365265819 3.1999999999999997
    vertex 14926.890313489957 12956.420365265816 3.1999999999999997
  endloop
endfacet
facet normal -0.0 -0.0 1.0
  outer loop
    vertex 14926.890313489957 12956.420365265816 3.1999999999999997
    vertex 14926.890313489948 12948.620365265819 3.1999999999999997
    vertex 14926.890313489957 12955.571837128395 3.1999999999999997
  endloop
endfacet
facet normal -0.0 -0.0 1.0
  outer loop
    vertex 14926.890313489957 12956.420365265816 3.1999999999999997
    vertex 14926.890313489957 12955.571837128395 3.1999999999999997
    vertex 14927.138841627384 12955.82036526582 3.1999999999999997
  endloop
endfacet
facet normal -0.0 -0.0 1.0
  outer loop
    vertex 14926.890313489957 12956.420365265816 3.1999999999999997
    vertex 14927.138841627384 12955.82036526582 3.1999999999999997
    vertex 14933.490313489956 12956.420365265822 3.1999999999999997
  endloop
endfacet
facet normal -0.0 -0.0 1.0
  outer loop
    vertex 14933.490313489956 12956.420365265822 3.1999999999999997
    vertex 14927.138841627384 12955.82036526582 3.1999999999999997
    vertex 14933.241785352535 12955.82036526582 3.1999999999999997
  endloop
endfacet
facet normal -0.0 -0.0 1.0
  outer loop
    vertex 14933.490313489956 12956.420365265822 3.1999999999999997
    vertex 14933.241785352535 12955.82036526582 3.1999999999999997
    vertex 14933.490313489956 12955.571837128395 3.1999999999999997
  endloop
endfacet
facet normal -0.0 -0.0 1.0
  outer loop
    vertex 14926.890313489963 12949.468893403257 1.2
    vertex 14927.138841627384 12955.82036526582 1.2
    vertex 14926.890313489957 12955.571837128395 1.2
  endloop
endfacet
facet normal -0.0 -0.0 1.0
  outer loop
    vertex 14927.138841627384 12955.82036526582 1.2
    vertex 14926.890313489963 12949.468893403257 1.2
    vertex 14927.138841627384 12949.22036526582 1.2
  endloop
endfacet
facet normal -0.0 -0.0 1.0
  outer loop
    vertex 14927.138841627384 12955.82036526582 1.2
    vertex 14927.138841627384 12949.22036526582 1.2
    vertex 14933.241785352535 12949.22036526582 1.2
  endloop
endfacet
facet normal -0.0 -0.0 1.0
  outer loop
    vertex 14927.138841627384 12955.82036526582 1.2
    vertex 14933.241785352535 12949.22036526582 1.2
    vertex 14933.241785352535 12955.82036526582 1.2
  endloop
endfacet
facet normal -0.0 -0.0 1.0
  outer loop
    vertex 14933.241785352535 12955.82036526582 1.2
    vertex 14933.241785352535 12949.22036526582 1.2
    vertex 14933.490313489956 12949.468893403257 1.2
  endloop
endfacet
facet normal -0.0 -0.0 1.0
  outer loop
    vertex 14933.241785352535 12955.82036526582 1.2
    vertex 14933.490313489956 12949.468893403257 1.2
    vertex 14933.490313489956 12955.571837128395 1.2
  endloop
endfacet
facet normal -0.7071067811831444 0.7071067811899506 -0.0
  outer loop
    vertex 14926.290313489953 12955.82036526582 3.1999999999999997
    vertex 14926.890313489957 12956.420365265816 1.2
    vertex 14926.290313489953 12955.82036526582 1.2
  endloop
endfacet
facet normal -0.7071067811831444 0.7071067811899506 -0.0
  outer loop
    vertex 14926.890313489957 12956.420365265816 1.2
    vertex 14926.290313489953 12955.82036526582 3.1999999999999997
    vertex 14926.890313489957 12956.420365265816 3.1999999999999997
  endloop
endfacet
facet normal -0.0 -0.0 1.0
  outer loop
    vertex 14925.790313489957 12948.120365265819 1.2
    vertex 14926.290313489953 12949.22036526582 1.2
    vertex 14925.790313489957 12956.92036526582 1.2
  endloop
endfacet
facet normal -0.0 -0.0 1.0
  outer loop
    vertex 14926.290313489953 12949.22036526582 1.2
    vertex 14925.790313489957 12948.120365265819 1.2
    vertex 14926.890313489948 12948.620365265819 1.2
  endloop
endfacet
facet normal -0.0 -0.0 1.0
  outer loop
    vertex 14926.890313489948 12948.620365265819 1.2
    vertex 14925.790313489957 12948.120365265819 1.2
    vertex 14934.590313489958 12948.120365265819 1.2
  endloop
endfacet
facet normal -0.0 -0.0 1.0
  outer loop
    vertex 14926.890313489948 12948.620365265819 1.2
    vertex 14934.590313489958 12948.120365265819 1.2
    vertex 14933.490313489956 12948.620365265819 1.2
  endloop
endfacet
facet normal -0.0 -0.0 1.0
  outer loop
    vertex 14933.490313489956 12948.620365265819 1.2
    vertex 14934.590313489958 12948.120365265819 1.2
    vertex 14934.090313489958 12949.220365265815 1.2
  endloop
endfacet
facet normal -0.0 -0.0 1.0
  outer loop
    vertex 14925.790313489957 12956.92036526582 1.2
    vertex 14926.890313489957 12956.420365265816 1.2
    vertex 14934.590313489958 12956.92036526582 1.2
  endloop
endfacet
facet normal -0.0 -0.0 1.0
  outer loop
    vertex 14926.890313489957 12956.420365265816 1.2
    vertex 14925.790313489957 12956.92036526582 1.2
    vertex 14926.290313489953 12955.82036526582 1.2
  endloop
endfacet
facet normal -0.0 -0.0 1.0
  outer loop
    vertex 14926.290313489953 12955.82036526582 1.2
    vertex 14925.790313489957 12956.92036526582 1.2
    vertex 14926.290313489953 12949.22036526582 1.2
  endloop
endfacet
facet normal -0.0 -0.0 1.0
  outer loop
    vertex 14934.590313489958 12956.92036526582 1.2
    vertex 14926.890313489957 12956.420365265816 1.2
    vertex 14933.490313489956 12956.420365265822 1.2
  endloop
endfacet
facet normal -0.0 -0.0 1.0
  outer loop
    vertex 14934.590313489958 12956.92036526582 1.2
    vertex 14933.490313489956 12956.420365265822 1.2
    vertex 14934.090313489949 12955.82036526582 1.2
  endloop
endfacet
facet normal -0.0 -0.0 1.0
  outer loop
    vertex 14934.590313489958 12956.92036526582 1.2
    vertex 14934.090313489949 12955.82036526582 1.2
    vertex 14934.090313489958 12949.220365265815 1.2
  endloop
endfacet
facet normal -0.0 -0.0 1.0
  outer loop
    vertex 14934.590313489958 12956.92036526582 1.2
    vertex 14934.090313489958 12949.220365265815 1.2
    vertex 14934.590313489958 12948.120365265819 1.2
  endloop
endfacet
facet normal -0.0 1.0 -0.0
  outer loop
    vertex 14925.790313489957 12956.92036526582 1.2
    vertex 14934.590313489958 12956.92036526582 0.0
    vertex 14925.790313489957 12956.92036526582 0.0
  endloop
endfacet
facet normal -0.0 1.0 -0.0
  outer loop
    vertex 14934.590313489958 12956.92036526582 0.0
    vertex 14925.790313489957 12956.92036526582 1.2
    vertex 14934.590313489958 12956.92036526582 1.2
  endloop
endfacet
facet normal -1.0 0.0 0.0
  outer loop
    vertex 14925.790313489957 12956.92036526582 1.2
    vertex 14925.790313489957 12948.120365265819 0.0
    vertex 14925.790313489957 12948.120365265819 1.2
  endloop
endfacet
facet normal -1.0 0.0 0.0
  outer loop
    vertex 14925.790313489957 12948.120365265819 0.0
    vertex 14925.790313489957 12956.92036526582 1.2
    vertex 14925.790313489957 12956.92036526582 0.0
  endloop
endfacet
facet normal 1.0 -0.0 -0.0
  outer loop
    vertex 14934.590313489958 12956.92036526582 0.0
    vertex 14934.590313489958 12948.120365265819 1.2
    vertex 14934.590313489958 12948.120365265819 0.0
  endloop
endfacet
facet normal 1.0 -0.0 -0.0
  outer loop
    vertex 14934.590313489958 12948.120365265819 1.2
    vertex 14934.590313489958 12956.92036526582 0.0
    vertex 14934.590313489958 12956.92036526582 1.2
  endloop
endfacet
facet normal 0.0 -1.0 0.0
  outer loop
    vertex 14933.241785352535 12955.82036526582 3.1999999999999997
    vertex 14927.138841627384 12955.82036526582 1.2
    vertex 14933.241785352535 12955.82036526582 1.2
  endloop
endfacet
facet normal 0.0 -1.0 0.0
  outer loop
    vertex 14927.138841627384 12955.82036526582 1.2
    vertex 14933.241785352535 12955.82036526582 3.1999999999999997
    vertex 14927.138841627384 12955.82036526582 3.1999999999999997
  endloop
endfacet
facet normal 0.0 -1.0 0.0
  outer loop
    vertex 14934.590313489958 12948.120365265819 1.2
    vertex 14925.790313489957 12948.120365265819 0.0
    vertex 14934.590313489958 12948.120365265819 0.0
  endloop
endfacet
facet normal 0.0 -1.0 0.0
  outer loop
    vertex 14925.790313489957 12948.120365265819 0.0
    vertex 14934.590313489958 12948.120365265819 1.2
    vertex 14925.790313489957 12948.120365265819 1.2
  endloop
endfacet
facet normal 0.0 -1.0 0.0
  outer loop
    vertex 14933.490313489956 12948.620365265819 3.1999999999999997
    vertex 14926.890313489948 12948.620365265819 1.2
    vertex 14933.490313489956 12948.620365265819 1.2
  endloop
endfacet
facet normal 0.0 -1.0 0.0
  outer loop
    vertex 14926.890313489948 12948.620365265819 1.2
    vertex 14933.490313489956 12948.620365265819 3.1999999999999997
    vertex 14926.890313489948 12948.620365265819 3.1999999999999997
  endloop
endfacet
facet normal 1.0 1.3125662173305348e-12 -0.0
  outer loop
    vertex 14934.090313489949 12955.82036526582 1.2
    vertex 14934.090313489958 12949.220365265815 3.1999999999999997
    vertex 14934.090313489958 12949.220365265815 1.2
  endloop
endfacet
facet normal 1.0 1.3125662173305348e-12 -0.0
  outer loop
    vertex 14934.090313489958 12949.220365265815 3.1999999999999997
    vertex 14934.090313489949 12955.82036526582 1.2
    vertex 14934.090313489949 12955.82036526582 3.1999999999999997
  endloop
endfacet
facet normal 0.7071067811831444 -0.7071067811899506 0.0
  outer loop
    vertex 14934.090313489958 12949.220365265815 3.1999999999999997
    vertex 14933.490313489956 12948.620365265819 1.2
    vertex 14934.090313489958 12949.220365265815 1.2
  endloop
endfacet
facet normal 0.7071067811831444 -0.7071067811899506 0.0
  outer loop
    vertex 14933.490313489956 12948.620365265819 1.2
    vertex 14934.090313489958 12949.220365265815 3.1999999999999997
    vertex 14933.490313489956 12948.620365265819 3.1999999999999997
  endloop
endfacet
facet normal 0.0 0.0 -1.0
  outer loop
    vertex 14934.590313489958 12956.92036526582 0.0
    vertex 14925.790313489957 12948.120365265819 0.0
    vertex 14925.790313489957 12956.92036526582 0.0
  endloop
endfacet
facet normal 0.0 0.0 -1.0
  outer loop
    vertex 14925.790313489957 12948.120365265819 0.0
    vertex 14934.590313489958 12956.92036526582 0.0
    vertex 14934.590313489958 12948.120365265819 0.0
  endloop
endfacet
facet normal -0.7071067811906555 -0.7071067811824396 0.0
  outer loop
    vertex 14933.241785352535 12955.82036526582 3.1999999999999997
    vertex 14933.490313489956 12955.571837128395 1.2
    vertex 14933.490313489956 12955.571837128395 3.1999999999999997
  endloop
endfacet
facet normal -0.7071067811906555 -0.7071067811824396 0.0
  outer loop
    vertex 14933.490313489956 12955.571837128395 1.2
    vertex 14933.241785352535 12955.82036526582 3.1999999999999997
    vertex 14933.241785352535 12955.82036526582 1.2
  endloop
endfacet
facet normal 1.0 9.463124053510033e-13 -0.0
  outer loop
    vertex 14926.890313489957 12955.571837128395 1.2
    vertex 14926.890313489963 12949.468893403257 3.1999999999999997
    vertex 14926.890313489963 12949.468893403257 1.2
  endloop
endfacet
facet normal 1.0 9.463124053510033e-13 -0.0
  outer loop
    vertex 14926.890313489963 12949.468893403257 3.1999999999999997
    vertex 14926.890313489957 12955.571837128395 1.2
    vertex 14926.890313489957 12955.571837128395 3.1999999999999997
  endloop
endfacet
facet normal -1.0 0.0 0.0
  outer loop
    vertex 14926.290313489953 12955.82036526582 3.1999999999999997
    vertex 14926.290313489953 12949.22036526582 1.2
    vertex 14926.290313489953 12949.22036526582 3.1999999999999997
  endloop
endfacet
facet normal -1.0 0.0 0.0
  outer loop
    vertex 14926.290313489953 12949.22036526582 1.2
    vertex 14926.290313489953 12955.82036526582 3.1999999999999997
    vertex 14926.290313489953 12955.82036526582 1.2
  endloop
endfacet
facet normal 0.7071067811916522 0.7071067811814429 -0.0
  outer loop
    vertex 14933.490313489956 12956.420365265822 1.2
    vertex 14934.090313489949 12955.82036526582 3.1999999999999997
    vertex 14934.090313489949 12955.82036526582 1.2
  endloop
endfacet
facet normal 0.7071067811916522 0.7071067811814429 -0.0
  outer loop
    vertex 14934.090313489949 12955.82036526582 3.1999999999999997
    vertex 14933.490313489956 12956.420365265822 1.2
    vertex 14933.490313489956 12956.420365265822 3.1999999999999997
  endloop
endfacet
facet normal -0.7071067811916522 -0.7071067811814429 0.0
  outer loop
    vertex 14926.290313489953 12949.22036526582 3.1999999999999997
    vertex 14926.890313489948 12948.620365265819 1.2
    vertex 14926.890313489948 12948.620365265819 3.1999999999999997
  endloop
endfacet
facet normal -0.7071067811916522 -0.7071067811814429 0.0
  outer loop
    vertex 14926.890313489948 12948.620365265819 1.2
    vertex 14926.290313489953 12949.22036526582 3.1999999999999997
    vertex 14926.290313489953 12949.22036526582 1.2
  endloop
endfacet
facet normal 0.7071067812070873 0.7071067811660079 -0.0
  outer loop
    vertex 14926.890313489963 12949.468893403257 1.2
    vertex 14927.138841627384 12949.22036526582 3.1999999999999997
    vertex 14927.138841627384 12949.22036526582 1.2
  endloop
endfacet
facet normal 0.7071067812070873 0.7071067811660079 -0.0
  outer loop
    vertex 14927.138841627384 12949.22036526582 3.1999999999999997
    vertex 14926.890313489963 12949.468893403257 1.2
    vertex 14926.890313489963 12949.468893403257 3.1999999999999997
  endloop
endfacet
facet normal -0.7071067812070873 0.7071067811660079 0.0
  outer loop
    vertex 14933.490313489956 12949.468893403257 3.1999999999999997
    vertex 14933.241785352535 12949.22036526582 1.2
    vertex 14933.241785352535 12949.22036526582 3.1999999999999997
  endloop
endfacet
facet normal -0.7071067812070873 0.7071067811660079 0.0
  outer loop
    vertex 14933.241785352535 12949.22036526582 1.2
    vertex 14933.490313489956 12949.468893403257 3.1999999999999997
    vertex 14933.490313489956 12949.468893403257 1.2
  endloop
endfacet
facet normal -1.0 0.0 0.0
  outer loop
    vertex 14933.490313489956 12955.571837128395 3.1999999999999997
    vertex 14933.490313489956 12949.468893403257 1.2
    vertex 14933.490313489956 12949.468893403257 3.1999999999999997
  endloop
endfacet
facet normal -1.0 0.0 0.0
  outer loop
    vertex 14933.490313489956 12949.468893403257 1.2
    vertex 14933.490313489956 12955.571837128395 3.1999999999999997
    vertex 14933.490313489956 12955.571837128395 1.2
  endloop
endfacet
facet normal -8.75044144887789e-13 1.0 -0.0
  outer loop
    vertex 14926.890313489957 12956.420365265816 3.1999999999999997
    vertex 14933.490313489956 12956.420365265822 1.2
    vertex 14926.890313489957 12956.420365265816 1.2
  endloop
endfacet
facet normal -8.75044144887789e-13 1.0 -0.0
  outer loop
    vertex 14933.490313489956 12956.420365265822 1.2
    vertex 14926.890313489957 12956.420365265816 3.1999999999999997
    vertex 14933.490313489956 12956.420365265822 3.1999999999999997
  endloop
endfacet
facet normal -0.0 1.0 -0.0
  outer loop
    vertex 14927.138841627384 12949.22036526582 3.1999999999999997
    vertex 14933.241785352535 12949.22036526582 1.2
    vertex 14927.138841627384 12949.22036526582 1.2
  endloop
endfacet
facet normal -0.0 1.0 -0.0
  outer loop
    vertex 14933.241785352535 12949.22036526582 1.2
    vertex 14927.138841627384 12949.22036526582 3.1999999999999997
    vertex 14933.241785352535 12949.22036526582 3.1999999999999997
  endloop
endfacet
facet normal 0.7071067811824396 -0.7071067811906555 0.0
  outer loop
    vertex 14927.138841627384 12955.82036526582 3.1999999999999997
    vertex 14926.890313489957 12955.571837128395 1.2
    vertex 14927.138841627384 12955.82036526582 1.2
  endloop
endfacet
facet normal 0.7071067811824396 -0.7071067811906555 0.0
  outer loop
    vertex 14926.890313489957 12955.571837128395 1.2
    vertex 14927.138841627384 12955.82036526582 3.1999999999999997
    vertex 14926.890313489957 12955.571837128395 3.1999999999999997
  endloop
endfacet
endsolid AutoSave_AutoSave_All parts 1
